<svg xmlns="http://www.w3.org/2000/svg" xml:space="preserve" width="1000px" height="231px" x="0px" y="0px" viewBox="0 0 1000 231"><g fill="#00A8E1"><path d="M812.065 107.514V84.613c0-56.771-40.952-82.481-78.903-82.481-52.383 0-88.723 41.52-88.723 91.446 0 53.25 34.186 86.083 76.851 86.083 31.172 0 48.922-12.386 60.407-23.575 3.235 5.614 6.012 9.539 8.714 12.919 4.393 5.293 9.289 7.778 14.978 7.778 3.15 0 6.446-.755 9.973-2.264 6.892-2.998 11.319-7.386 12.748-12.819 1.51-5.614-.332-11.018-2.575-14.188-7.871-11.773-13.47-28.225-13.47-39.998m-46.461-18.323c-1.635 28.545-17.458 53.168-44.716 50.623-21.223-1.912-33.7-24.561-29.812-52.494 3.945-27.9 21.354-47.491 43.746-45.65 21.926 1.146 32.241 19.55 30.782 47.521M880.635 196.877c-8.408 21.589-5.329 27.605 3.129 30.956 14.635 5.826 35.066-.402 42.287-18.936l67.99-174.788c8.388-21.563 5.327-27.575-3.154-30.931-14.616-5.831-35.048.397-42.261 18.938l-24.607 63.331-35.682-67.004c-9.253-17.417-30.241-21.201-44.123-13.785-8.043 4.287-10.419 10.515.363 30.745l57.138 107.358-21.08 54.116zM600.623 2.172c-15.244 0-23.601 6.808-26.011 19.299l-17.604 98.862c-.111.572-.942.604-1.083.039L533.1 25.935c-4.265-16.417-9.141-23.762-23.111-23.762-14.007 0-18.867 7.346-23.151 23.762l-22.824 94.438c-.126.564-.971.533-1.082-.039l-17.604-98.862c-2.378-12.492-10.749-19.3-25.996-19.3-10.799 0-20.627 5.796-18.504 15.124l31.631 139.613c2.968 13.142 14.775 21.242 29.394 21.242 15.229 0 27.326-8.603 30.621-21.242l17.515-73.917 17.497 73.917c3.311 12.64 15.391 21.242 30.634 21.242 14.601 0 26.394-8.101 29.383-21.242l31.646-139.613c2.082-9.328-7.723-15.124-18.526-15.124M284.72 2.132c-59.314 0-90.312 39.759-90.312 88.75 0 48.994 30.997 88.779 90.312 88.779 59.332 0 90.313-39.785 90.313-88.779 0-48.991-30.981-88.75-90.313-88.75m0 138.005c-25.292 0-43.924-18.324-43.924-49.255 0-30.889 18.632-49.252 43.924-49.252 25.309 0 43.924 18.363 43.924 49.252 0 30.931-18.616 49.255-43.924 49.255M152.16 125.878c-16.743 15.697-43.743 19.229-59.855 17.065-22.917-3.028-44.93-17.357-44.93-52.062 0-30.889 18.648-49.252 43.939-49.252 16.887 0 27.616 5.474 39.784 15.013 15.083 11.843 34.959-3.603 32.619-18.213-2.539-16.172-31.897-36.297-72.403-36.297C32.002 2.132 1 41.891 1 90.881c0 46.226 27.364 88.779 94.6 88.779 35.497 0 61.022-14.65 64.695-34.554 1.62-8.683-3.743-16.673-8.135-19.228"/></g></svg>