<?xml version="1.0" encoding="UTF-8" standalone="no"?>
<!-- Created with Inkscape (http://www.inkscape.org/) -->

<svg
   width="25.929413mm"
   height="10.612832mm"
   viewBox="0 0 25.929413 10.612832"
   version="1.1"
   id="svg5"
   xml:space="preserve"
   xmlns="http://www.w3.org/2000/svg"
   xmlns:svg="http://www.w3.org/2000/svg"><defs
     id="defs2" /><g
     id="layer1"
     transform="translate(-26.44422,-77.45233)"><path
       d="m 31.391929,86.863953 c -0.870479,0 -1.370542,-0.566208 -1.370542,-1.547812 a 1.6324792,1.6324792 0 0 1 0.420688,-1.18798 1.349375,1.349375 0 0 1 0.963083,-0.378354 c 0.838729,0 1.357312,0.592667 1.359958,1.547813 a 1.6271875,1.6271875 0 0 1 -0.41275,1.190625 1.3784792,1.3784792 0 0 1 -0.960437,0.375708 z m 0,-2.545292 a 0.33072917,0.33072917 0 0 0 -0.240771,0.0979 c -0.182563,0.182563 -0.219604,0.579438 -0.219604,0.881063 0,0.66675 0.156104,0.992187 0.47625,0.992187 a 0.28045833,0.28045833 0 0 0 0.203729,-0.08731 c 0.179917,-0.179916 0.216958,-0.592666 0.216958,-0.904875 0,-0.312208 -0.0344,-0.976312 -0.428625,-0.976312 z m 4.336521,2.492375 v -1.939395 c 0,-0.74348 -0.322792,-1.121834 -0.949855,-1.121834 a 1.1694583,1.1694583 0 0 0 -0.904875,0.391584 l -0.06085,-0.34925 h -0.79375 c 0,0.100541 0.0291,0.682625 0.03175,0.894291 v 2.116667 h 0.926042 v -1.852083 c 0,-0.4445 0.264583,-0.582084 0.4445,-0.582084 0.264583,0 0.388937,0.185209 0.388937,0.529167 v 1.444625 c 0,0.359833 0.264584,0.457729 0.529167,0.473604 a 1.42875,1.42875 0 0 0 0.396875,-0.0053 z m 13.332353,0 v -1.939395 c 0,-0.74348 -0.320146,-1.121834 -0.947208,-1.121834 a 1.1668125,1.1668125 0 0 0 -0.904875,0.391584 l -0.06085,-0.34925 h -0.79375 c 0,0.100541 0.0291,0.682625 0.0291,0.894291 v 2.116667 h 0.926042 v -1.852083 c 0,-0.4445 0.264583,-0.582084 0.4445,-0.582084 0.264583,0 0.388937,0.185209 0.388937,0.529167 v 1.444625 c 0,0.357187 0.264583,0.457729 0.529167,0.473604 a 1.4022917,1.4022917 0 0 0 0.396875,-0.0053 z m -11.90625,1.254126 a 5.1329167,5.1329167 0 0 1 -0.881062,-0.132292 2.4738542,2.4738542 0 0 1 0.0979,-0.341312 c 0.04498,-0.121709 0.164041,-0.185209 0.357187,-0.158751 a 2.5532292,2.5532292 0 0 0 0.394229,0.03969 0.70908333,0.70908333 0 0 0 0.529167,-0.177271 0.809625,0.809625 0 0 0 0.195792,-0.592666 v -0.214312 h -0.02646 a 0.82814583,0.82814583 0 0 1 -0.674687,0.293687 c -0.8255,0 -1.119187,-0.751416 -1.119187,-1.457854 a 1.7674167,1.7674167 0 0 1 0.439209,-1.264708 1.0583333,1.0583333 0 0 1 0.767291,-0.320146 0.79375,0.79375 0 0 1 0.690563,0.346604 l 0.07408,-0.293687 h 0.79375 c 0,0 -0.03175,0.502708 -0.03175,0.944562 v 1.748896 c 0,0.629708 -0.129646,1.000125 -0.431271,1.240896 A 1.8520833,1.8520833 0 0 1 37.1572,88.057227 Z m 0.304271,-3.677709 a 0.39952083,0.39952083 0 0 0 -0.293687,0.119063 1.2065,1.2065 0 0 0 -0.227542,0.809625 c 0,0.552979 0.187854,0.886354 0.500062,0.886354 a 0.3730625,0.3730625 0 0 0 0.351896,-0.235479 0.69320833,0.69320833 0 0 0 0.04763,-0.264584 v -0.820208 a 0.74347917,0.74347917 0 0 0 -0.03969,-0.235479 0.36247917,0.36247917 0 0 0 -0.338667,-0.264584 z m 2.910417,2.460625 a 1.4155208,1.4155208 0 0 0 0.264583,-0.03175 l 0.478896,-1.965854 h 0.02646 c 0,0 0.230188,0.828146 0.386292,1.441979 0.142875,0.566208 0.579437,0.529167 0.8255,0.529167 a 0.46302083,0.46302083 0 0 0 0.174625,-0.02646 l 0.867831,-3.003021 h -0.928687 l -0.452438,1.93675 h -0.02646 l -0.497415,-1.93675 a 1.5636875,1.5636875 0 0 0 -0.264583,-0.0291 c -0.214313,0 -0.433917,0 -0.529167,0.357187 -0.09525,0.357188 -0.378354,1.616604 -0.378354,1.616604 h -0.01852 l -0.494772,-1.944687 h -0.923395 c 0.08467,0.296333 0.674687,2.346854 0.738187,2.542645 a 0.69320833,0.69320833 0 0 0 0.759354,0.505355 z m 4.339166,0.01587 c -0.873125,0 -1.373187,-0.566208 -1.373187,-1.547812 a 1.6430625,1.6430625 0 0 1 0.420687,-1.18798 1.3546667,1.3546667 0 0 1 0.96573,-0.378354 c 0.836083,0 1.357312,0.592667 1.357312,1.547813 a 1.6271875,1.6271875 0 0 1 -0.410104,1.190625 1.3837708,1.3837708 0 0 1 -0.960438,0.375708 z m 0,-2.545292 a 0.33072917,0.33072917 0 0 0 -0.24077,0.0979 c -0.179917,0.182563 -0.219605,0.579438 -0.219605,0.881063 0,0.66675 0.156105,0.992187 0.47625,0.992187 a 0.28310417,0.28310417 0 0 0 0.206375,-0.08731 c 0.187855,-0.1905 0.216959,-0.648229 0.216959,-0.904875 0,-0.296333 -0.04498,-0.978958 -0.439209,-0.978959 z m -18.264187,1.95263 v -3.57452 a 6.8791667,6.8791667 0 0 1 1.254125,-0.05292 c 1.394355,0.0979 2.116667,1.037166 2.116667,2.20927 0,0.77523 -0.367771,2.005542 -2.270125,2.005542 -0.867833,0 -1.100667,-0.259291 -1.100667,-0.587375 z m 0.926042,-2.910416 v 2.487083 c 0,0.103188 0,0.336021 0.325438,0.336021 0.465666,0 1.084791,-0.320146 1.084791,-1.322917 0,-0.500062 -0.264583,-1.423458 -1.058333,-1.510771 a 1.2250208,1.2250208 0 0 0 -0.351896,0 z m 24.077083,-5.045604 a 3.3311042,3.3311042 0 0 0 -4.474104,0 2.8125208,2.8125208 0 0 0 0,4.172479 3.3258125,3.3258125 0 0 0 4.474104,0 2.8125208,2.8125208 0 0 0 0,-4.172479 z m -2.439458,4.683125 a 2.6114375,2.6114375 0 0 1 -0.494771,-0.08202 2.38125,2.38125 0 0 1 -0.637646,-0.309563 4.0666458,4.0666458 0 0 1 1.135062,-0.216958 z m 0,-0.923396 a 4.41325,4.41325 0 0 0 -1.397,0.304271 c -0.04498,-0.03969 -0.08731,-0.08202 -0.129646,-0.127 a 2.7860625,2.7860625 0 0 1 -0.399521,-0.550334 10.755312,10.755312 0 0 1 1.934104,-0.201083 z m 0,-0.949854 a 11.228917,11.228917 0 0 0 -2.087563,0.227541 2.8019375,2.8019375 0 0 1 -0.177271,-0.817562 h 2.264834 z m 0,-0.92075 h -2.262188 a 2.8125208,2.8125208 0 0 1 0.185208,-0.814917 11.342687,11.342687 0 0 0 2.07698,0.224896 z m 0,-0.9525 a 11.049,11.049 0 0 1 -1.926167,-0.1905 2.6114375,2.6114375 0 0 1 0.378354,-0.529167 1.9923125,1.9923125 0 0 1 0.150813,-0.142875 4.4370625,4.4370625 0 0 0 1.389062,0.28575 z m 0,-0.891646 a 4.0454792,4.0454792 0 0 1 -1.105959,-0.206375 2.3468542,2.3468542 0 0 1 1.105959,-0.402167 z m 0.394229,-0.608542 a 2.3362708,2.3362708 0 0 1 1.119187,0.41275 4.0454792,4.0454792 0 0 1 -1.105958,0.206375 z m 0,0.912813 a 4.4370625,4.4370625 0 0 0 1.383771,-0.275167 1.9923125,1.9923125 0 0 1 0.150812,0.148167 2.6114375,2.6114375 0 0 1 0.378354,0.529166 11.049,11.049 0 0 1 -1.918229,0.201084 z m 0,0.949854 a 11.377083,11.377083 0 0 0 2.076979,-0.224896 2.8125208,2.8125208 0 0 1 0.185208,0.814917 h -2.262187 z m 0.494771,3.302 a 2.6114375,2.6114375 0 0 1 -0.494771,0.08202 v -0.608542 a 4.0296042,4.0296042 0 0 1 1.135062,0.216958 2.38125,2.38125 0 0 1 -0.640291,0.320146 z m 1.058333,-0.674688 q -0.0635,0.06879 -0.127,0.127 a 4.445,4.445 0 0 0 -1.412875,-0.293687 v -0.574146 a 10.755312,10.755312 0 0 1 1.934104,0.201083 2.7860625,2.7860625 0 0 1 -0.407458,0.550334 z m 0.547687,-0.889 a 11.228917,11.228917 0 0 0 -2.100791,-0.206375 v -0.600604 h 2.264833 a 2.88925,2.88925 0 0 1 -0.177271,0.817563 z"
       fill="#0065bd"
       id="path150"
       style="stroke-width:0.264583" /></g></svg>
