<?xml version="1.0" encoding="UTF-8" standalone="no"?>
<!-- Created with Inkscape (http://www.inkscape.org/) -->

<svg
   xmlns:dc="http://purl.org/dc/elements/1.1/"
   xmlns:cc="http://creativecommons.org/ns#"
   xmlns:rdf="http://www.w3.org/1999/02/22-rdf-syntax-ns#"
   xmlns:svg="http://www.w3.org/2000/svg"
   xmlns="http://www.w3.org/2000/svg"
   xmlns:sodipodi="http://sodipodi.sourceforge.net/DTD/sodipodi-0.dtd"
   xmlns:inkscape="http://www.inkscape.org/namespaces/inkscape"
   width="76.070671"
   height="18.00803"
   viewBox="0 0 20.127031 4.7646248"
   version="1.1"
   id="svg20614"
   inkscape:version="0.92.0 r15299"
   sodipodi:docname="hyundai glovis.svg">
  <defs
     id="defs20608" />
  <sodipodi:namedview
     id="base"
     pagecolor="#ffffff"
     bordercolor="#666666"
     borderopacity="1.0"
     inkscape:pageopacity="0.0"
     inkscape:pageshadow="2"
     inkscape:zoom="10.683267"
     inkscape:cx="37.535333"
     inkscape:cy="8.5040167"
     inkscape:document-units="mm"
     inkscape:current-layer="layer1"
     showgrid="false"
     fit-margin-top="0"
     fit-margin-left="0"
     fit-margin-right="0"
     fit-margin-bottom="0"
     units="px"
     inkscape:window-width="1280"
     inkscape:window-height="744"
     inkscape:window-x="-4"
     inkscape:window-y="-4"
     inkscape:window-maximized="1" />
  <metadata
     id="metadata20611">
    <rdf:RDF>
      <cc:Work
         rdf:about="">
        <dc:format>image/svg+xml</dc:format>
        <dc:type
           rdf:resource="http://purl.org/dc/dcmitype/StillImage" />
        <dc:title></dc:title>
      </cc:Work>
    </rdf:RDF>
  </metadata>
  <g
     inkscape:label="Layer 1"
     inkscape:groupmode="layer"
     id="layer1"
     transform="translate(-99.681872,-203.77111)">
    <g
       id="g10293"
       transform="matrix(0.35277777,0,0,-0.35277777,103.52962,206.14107)">
      <path
         d="m 0,0 c -0.875,0 -1.584,-0.691 -1.584,-1.547 v -3.314 c 0,-0.853 0.609,-1.435 1.621,-1.544 h 4.807 c 1.021,0.109 1.621,0.691 1.621,1.544 v 2.498 H 1.182 v -1.602 h 3.601 v -0.391 c 0,-0.366 -0.317,-0.652 -0.708,-0.666 H 0.756 c -0.39,0 -0.707,0.3 -0.707,0.666 v 2.285 c 0,0.369 0.336,0.687 0.728,0.687 h 5.684 v 1.382"
         style="fill:#004181;fill-opacity:1;fill-rule:nonzero;stroke:none"
         id="path10295"
         inkscape:connector-curvature="0" />
    </g>
    <g
       id="g10297"
       transform="matrix(0.35277777,0,0,-0.35277777,111.34294,207.66012)">
      <path
         d="m 0,0 c 0,-0.36 -0.332,-0.65 -0.743,-0.65 h -3.443 c -0.41,0 -0.741,0.29 -0.741,0.65 v 2.133 c -0.009,0.416 0.338,0.734 0.779,0.729 h 3.405 C -0.332,2.862 0,2.571 0,2.213 Z m 0.031,4.297 h -4.99 C -6.008,4.189 -6.641,3.606 -6.641,2.756 v -3.302 c 0.106,-0.966 0.653,-1.438 1.722,-1.539 h 4.95 c 1.13,0.056 1.682,0.688 1.682,1.539 v 3.302 c 0,0.85 -0.667,1.433 -1.682,1.541"
         style="fill:#004181;fill-opacity:1;fill-rule:nonzero;stroke:none"
         id="path10299"
         inkscape:connector-curvature="0" />
    </g>
    <path
       d="m 115.7837,208.39709 h 0.59937 v -2.24966 h -0.59937 z"
       style="fill:#004181;fill-opacity:1;fill-rule:nonzero;stroke:none;stroke-width:0.35277778"
       id="path10301"
       inkscape:connector-curvature="0" />
    <g
       id="g10303"
       transform="matrix(0.35277777,0,0,-0.35277777,114.75324,206.17142)">
      <path
         d="M 0,0 -2.795,-4.635 -5.585,0 h -1.927 l 3.807,-6.321 h 1.823 L 1.927,0"
         style="fill:#004181;fill-opacity:1;fill-rule:nonzero;stroke:none"
         id="path10305"
         inkscape:connector-curvature="0" />
    </g>
    <g
       id="g10307"
       transform="matrix(0.35277777,0,0,-0.35277777,106.93004,207.88343)">
      <path
         d="M 0,0 V 4.861 H -1.625 V -1.355 H 5.244 V 0"
         style="fill:#004181;fill-opacity:1;fill-rule:nonzero;stroke:none"
         id="path10309"
         inkscape:connector-curvature="0" />
    </g>
    <g
       id="g10311"
       transform="matrix(0.35277777,0,0,-0.35277777,118.70647,206.9694)">
      <path
         d="M 0,0 1.165,-0.002 V -0.004 C 2.105,-0.06 2.75,-0.41 2.75,-1.553 v -0.954 c 0,-1.181 -0.649,-1.504 -1.585,-1.558 h -6.07 v 1.406 h 5.588 c 0,0 0.328,-0.039 0.319,0.364 C 1.002,-2.222 1,-2.011 1,-1.954 1,-1.577 0.704,-1.6 0.704,-1.6 l -4.232,0.005 h -0.187 c -0.332,0.023 -1.413,0.168 -1.385,1.507 v 0.873 c -0.013,1.192 0.7,1.556 1.634,1.556 H 2.585 V 0.945 h -5.496 c 0,0 -0.422,0.038 -0.422,-0.314 0,-0.05 -0.005,-0.291 -0.005,-0.356 C -3.338,-0.041 -2.864,0 -2.864,0"
         style="fill:#004181;fill-opacity:1;fill-rule:nonzero;stroke:none"
         id="path10313"
         inkscape:connector-curvature="0" />
    </g>
    <g
       id="g10315"
       transform="matrix(0.35277777,0,0,-0.35277777,100.83757,204.4862)">
      <path
         d="m 0,0 h -1.974 v 1.65 h -0.927 v -4.227 h 0.927 v 1.75 H 0 v -1.75 H 0.927 V 1.65 H 0"
         style="fill:#004181;fill-opacity:1;fill-rule:nonzero;stroke:none"
         id="path10317"
         inkscape:connector-curvature="0" />
    </g>
    <g
       id="g10319"
       transform="matrix(0.35277777,0,0,-0.35277777,108.27659,204.19515)">
      <path
         d="m 0,0 h 1.728 v -1.227 h -1.966 v 0.986 c 0.004,0.048 -0.005,0.136 0.036,0.188 C -0.158,0.003 -0.089,-0.002 0,0 M -0.955,0.585 C -1.15,0.385 -1.158,0.096 -1.163,-0.073 v -3.329 h 0.925 v 1.349 H 1.728 V -3.402 H 2.657 V 0.827 H -0.231 C -0.505,0.824 -0.762,0.785 -0.955,0.585"
         style="fill:#004181;fill-opacity:1;fill-rule:nonzero;stroke:none"
         id="path10321"
         inkscape:connector-curvature="0" />
    </g>
    <g
       id="g10323"
       transform="matrix(0.35277777,0,0,-0.35277777,105.62617,203.90376)">
      <path
         d="m 0,0 h -2.895 v -4.227 h 0.928 v 3.402 h 1.737 c 0.086,-0.002 0.159,0.002 0.202,-0.054 0.041,-0.053 0.033,-0.14 0.036,-0.188 v -3.16 H 0.935 V -0.9 C 0.929,-0.73 0.921,-0.44 0.727,-0.241 0.534,-0.041 0.277,-0.002 0,0"
         style="fill:#004181;fill-opacity:1;fill-rule:nonzero;stroke:none"
         id="path10325"
         inkscape:connector-curvature="0" />
    </g>
    <g
       id="g10327"
       transform="matrix(0.35277777,0,0,-0.35277777,103.98893,205.01853)">
      <path
         d="m 0,0 c -0.004,-0.049 0.005,-0.136 -0.036,-0.189 -0.043,-0.055 -0.115,-0.05 -0.2,-0.052 h -1.739 v 3.402 h -0.926 v -4.228 h 2.893 c 0.276,10e-4 0.534,0.041 0.725,0.241 0.197,0.199 0.204,0.489 0.21,0.659 V 3.161 H 0"
         style="fill:#004181;fill-opacity:1;fill-rule:nonzero;stroke:none"
         id="path10329"
         inkscape:connector-curvature="0" />
    </g>
    <g
       id="g10331"
       transform="matrix(0.35277777,0,0,-0.35277777,107.26941,205.01853)">
      <path
         d="m 0,0 c -0.005,-0.049 0.005,-0.136 -0.036,-0.188 -0.043,-0.056 -0.114,-0.052 -0.2,-0.053 h -1.74 v 2.576 h 1.74 C -0.15,2.332 -0.079,2.337 -0.036,2.282 0.005,2.228 -0.005,2.141 0,2.093 Z M 0.923,2.26 C 0.918,2.43 0.911,2.72 0.717,2.919 0.523,3.119 0.264,3.157 -0.008,3.16 h -2.895 v -4.227 h 2.895 c 0.272,10e-4 0.531,0.04 0.725,0.24 0.194,0.2 0.201,0.489 0.206,0.66"
         style="fill:#004181;fill-opacity:1;fill-rule:nonzero;stroke:none"
         id="path10333"
         inkscape:connector-curvature="0" />
    </g>
    <g
       id="g10335"
       transform="matrix(0.35277777,0,0,-0.35277777,102.06524,204.55639)">
      <path
         d="m 0,0 -1.124,1.85 h -1.101 l 1.73,-2.665 v -1.562 h 0.991 v 1.562 L 2.224,1.85 H 1.123"
         style="fill:#004181;fill-opacity:1;fill-rule:nonzero;stroke:none"
         id="path10337"
         inkscape:connector-curvature="0" />
    </g>
    <path
       d="m 109.8902,203.90412 h -0.34817 v 1.49084 h 0.34817 z"
       style="fill:#004181;fill-opacity:1;fill-rule:nonzero;stroke:none;stroke-width:0.35277778"
       id="path10339"
       inkscape:connector-curvature="0" />
  </g>
</svg>
