<?xml version="1.0" encoding="UTF-8" standalone="no"?>
<svg
   width="300px"
   height="145px"
   viewBox="0 0 300 145"
   version="1.1"
   id="svg1"
   sodipodi:docname="Haitai logo.svg"
   inkscape:version="1.3.2 (091e20e, 2023-11-25, custom)"
   xmlns:inkscape="http://www.inkscape.org/namespaces/inkscape"
   xmlns:sodipodi="http://sodipodi.sourceforge.net/DTD/sodipodi-0.dtd"
   xmlns="http://www.w3.org/2000/svg"
   xmlns:svg="http://www.w3.org/2000/svg">
  <defs
     id="defs1" />
  <sodipodi:namedview
     id="namedview1"
     pagecolor="#ffffff"
     bordercolor="#000000"
     borderopacity="0.25"
     inkscape:showpageshadow="2"
     inkscape:pageopacity="0.0"
     inkscape:pagecheckerboard="0"
     inkscape:deskcolor="#d1d1d1"
     inkscape:zoom="4.6633333"
     inkscape:cx="150"
     inkscape:cy="72.587563"
     inkscape:window-width="1920"
     inkscape:window-height="1009"
     inkscape:window-x="-8"
     inkscape:window-y="-8"
     inkscape:window-maximized="1"
     inkscape:current-layer="svg1" />
  <g
     id="surface1"
     style="fill:#f31c79;fill-opacity:1">
    <path
       style="stroke:none;fill-rule:nonzero;fill:#f31c79;fill-opacity:1"
       d="M 76.585938 94.652344 C 76.585938 110.03125 65.4375 122.496094 50.976562 122.496094 C 36.507812 122.496094 25.363281 110.03125 25.363281 94.652344 C 25.363281 79.277344 36.507812 66.8125 50.976562 66.8125 C 65.4375 66.8125 76.585938 79.277344 76.585938 94.652344 M 1.160156 94.652344 C 1.160156 122.464844 23.992188 145 50.976562 145 C 77.960938 145 100.785156 122.464844 100.785156 94.652344 C 100.785156 66.84375 77.960938 44.304688 50.976562 44.304688 C 23.992188 44.304688 1.160156 66.84375 1.160156 94.652344 M 125.613281 21.851562 C 125.613281 19.089844 127.011719 17.695312 129.769531 17.695312 L 199.03125 17.695312 C 201.789062 17.695312 203.183594 19.089844 203.183594 21.851562 L 203.183594 31.445312 C 203.183594 34.203125 201.789062 35.605469 199.03125 35.605469 L 129.71875 35.605469 C 128.125 35.605469 125.972656 35.238281 125.613281 32.160156 Z M 129.769531 12.636719 C 122.972656 12.636719 120.5625 17.601562 120.5625 21.851562 L 120.5625 32.488281 L 120.578125 32.621094 C 120.984375 36.503906 123.601562 40.65625 129.71875 40.65625 L 199.03125 40.65625 C 205.820312 40.65625 208.234375 35.695312 208.234375 31.445312 L 208.234375 21.851562 C 208.234375 17.601562 205.820312 12.636719 199.03125 12.636719 Z M 101.945312 32.09375 L 101.945312 23.445312 C 101.945312 20.96875 100.855469 16.761719 95.265625 16.761719 L 65.761719 16.761719 C 64.816406 16.761719 64.046875 16.097656 64.046875 15.285156 L 64.046875 6.683594 C 64.046875 4.207031 62.957031 0 57.367188 0 L 44.703125 0 C 39.113281 0 38.023438 4.207031 38.023438 6.683594 L 38.023438 15.285156 C 38.023438 16.097656 37.25 16.761719 36.3125 16.761719 L 6.679688 16.761719 C 1.09375 16.761719 0 20.96875 0 23.445312 L 0 32.09375 C 0 34.574219 1.09375 38.78125 6.679688 38.78125 L 95.265625 38.78125 C 100.855469 38.78125 101.945312 34.574219 101.945312 32.09375 M 125.613281 112.808594 L 125.613281 69.710938 C 125.613281 60.28125 132.402344 58.871094 136.445312 58.871094 L 199.03125 58.871094 C 201.789062 58.871094 203.183594 60.269531 203.183594 63.03125 L 203.183594 72.625 C 203.183594 75.382812 201.789062 76.78125 199.03125 76.78125 L 150.117188 76.78125 C 148.957031 76.78125 147.835938 77.234375 147.035156 78.035156 C 146.289062 78.78125 145.878906 79.761719 145.878906 80.785156 L 145.878906 104.59375 C 145.878906 117.574219 149.027344 120.375 163.613281 120.375 L 199.03125 120.375 C 201.789062 120.375 203.183594 121.773438 203.183594 124.535156 L 203.183594 134.128906 C 203.183594 136.890625 201.789062 138.289062 199.03125 138.289062 L 158.570312 138.289062 C 138.242188 138.289062 125.613281 128.523438 125.613281 112.808594 M 136.445312 53.816406 C 128.769531 53.816406 120.5625 57.996094 120.5625 69.710938 L 120.5625 112.808594 C 120.5625 131.355469 135.484375 143.339844 158.574219 143.339844 L 199.03125 143.339844 C 205.820312 143.339844 208.234375 138.378906 208.234375 134.128906 L 208.234375 124.535156 C 208.234375 120.285156 205.820312 115.320312 199.03125 115.320312 L 163.609375 115.320312 C 157.210938 115.320312 154.03125 114.808594 152.644531 113.558594 C 151.394531 112.429688 150.933594 110 150.933594 104.59375 L 150.933594 81.835938 L 199.03125 81.835938 C 205.820312 81.835938 208.234375 76.875 208.234375 72.625 L 208.234375 63.03125 C 208.234375 58.78125 205.820312 53.816406 199.03125 53.816406 Z M 300 135.574219 L 300 20.988281 C 300 18.503906 298.910156 14.300781 293.324219 14.300781 L 280.65625 14.300781 C 275.066406 14.300781 273.976562 18.503906 273.976562 20.988281 L 273.976562 54.476562 C 273.976562 55.289062 273.207031 55.953125 272.265625 55.953125 L 256.402344 55.953125 C 255.460938 55.953125 254.691406 55.289062 254.691406 54.476562 L 254.691406 20.988281 C 254.691406 18.503906 253.601562 14.300781 248.011719 14.300781 L 235.347656 14.300781 C 229.753906 14.300781 228.667969 18.503906 228.667969 20.988281 L 228.667969 135.574219 C 228.667969 138.050781 229.753906 142.257812 235.347656 142.257812 L 248.011719 142.257812 C 253.601562 142.257812 254.691406 138.050781 254.691406 135.574219 L 254.691406 79.449219 C 254.691406 78.636719 255.460938 77.972656 256.402344 77.972656 L 272.265625 77.972656 C 273.207031 77.972656 273.976562 78.636719 273.976562 79.449219 L 273.976562 135.574219 C 273.976562 138.050781 275.066406 142.257812 280.65625 142.257812 L 293.324219 142.257812 C 298.910156 142.257812 300 138.050781 300 135.574219 "
       id="path1" />
  </g>
</svg>
