<?xml version="1.0" encoding="utf-8"?>
<svg version="1.1" id="Homeplus" xmlns="http://www.w3.org/2000/svg" xmlns:xlink="http://www.w3.org/1999/xlink" x="0px" y="0px"
	 viewBox="0 0 235.7 34.2" style="enable-background:new 0 0 235.7 34.2;" xml:space="preserve">
<style type="text/css">
	.st0{clip-path:url(#SVGID_2_);}
	.st1{clip-path:url(#SVGID_12_);}
	.st2{clip-path:url(#SVGID_16_);}
	.st3{clip-path:url(#SVGID_2_);fill:#E6E6E6;}
	.st4{clip-path:url(#SVGID_2_);fill:#009E96;}
	.st5{clip-path:url(#SVGID_2_);fill:none;stroke:#009E96;stroke-miterlimit:10;}
	.st6{clip-path:url(#SVGID_24_);fill:#009E96;}
	.st7{opacity:0.2;clip-path:url(#SVGID_26_);}
	.st8{clip-path:url(#SVGID_28_);}
	.st9{clip-path:url(#SVGID_26_);fill:#FFA634;}
	.st10{clip-path:url(#SVGID_26_);fill:#FFCB34;}
	.st11{clip-path:url(#SVGID_32_);}
	.st12{clip-path:url(#SVGID_36_);}
	.st13{clip-path:url(#SVGID_42_);}
	.st14{clip-path:url(#SVGID_46_);}
	.st15{clip-path:url(#SVGID_50_);fill:url(#SVGID_51_);}
	.st16{clip-path:url(#SVGID_53_);fill:#FFFFFF;}
	.st17{clip-path:url(#SVGID_53_);fill:none;stroke:#FFFFFF;stroke-width:0.5;stroke-miterlimit:10;}
	.st18{clip-path:url(#SVGID_53_);fill:#443F32;}
	.st19{clip-path:url(#SVGID_53_);fill:#FFD848;}
	.st20{clip-path:url(#SVGID_55_);}
	.st21{clip-path:url(#SVGID_59_);}
	.st22{clip-path:url(#SVGID_61_);}
	.st23{clip-path:url(#SVGID_63_);fill:url(#SVGID_64_);}
	.st24{clip-path:url(#SVGID_68_);}
	.st25{clip-path:url(#SVGID_70_);}
	.st26{clip-path:url(#SVGID_72_);fill:url(#SVGID_73_);}
	.st27{clip-path:url(#SVGID_79_);}
	.st28{clip-path:url(#SVGID_81_);}
	.st29{clip-path:url(#SVGID_83_);fill:url(#SVGID_84_);}
	.st30{clip-path:url(#SVGID_86_);}
	.st31{clip-path:url(#SVGID_88_);fill:url(#SVGID_89_);}
	.st32{clip-path:url(#SVGID_91_);}
	.st33{clip-path:url(#SVGID_93_);fill:url(#SVGID_94_);}
	.st34{clip-path:url(#SVGID_96_);}
	.st35{clip-path:url(#SVGID_98_);fill:url(#SVGID_99_);}
	.st36{clip-path:url(#SVGID_101_);}
	.st37{clip-path:url(#SVGID_105_);}
	.st38{clip-path:url(#SVGID_109_);}
	.st39{clip-path:url(#SVGID_111_);}
	.st40{clip-path:url(#SVGID_113_);fill:url(#SVGID_114_);}
	.st41{clip-path:url(#SVGID_116_);}
	.st42{clip-path:url(#SVGID_118_);fill:url(#SVGID_119_);}
	.st43{clip-path:url(#SVGID_121_);fill:#FFFFFF;}
	.st44{clip-path:url(#SVGID_121_);fill:#3E3A39;}
	.st45{clip-path:url(#SVGID_121_);fill:#009991;}
	.st46{filter:url(#Adobe_OpacityMaskFilter);}
	.st47{clip-path:url(#SVGID_121_);}
	.st48{enable-background:new    ;}
	.st49{clip-path:url(#SVGID_124_);fill:url(#SVGID_125_);}
	.st50{clip-path:url(#SVGID_121_);mask:url(#SVGID_122_);}
	.st51{clip-path:url(#SVGID_127_);fill:#FFFFFF;}
	.st52{clip-path:url(#SVGID_121_);fill:#00B4AB;}
	.st53{clip-path:url(#SVGID_121_);fill:#898989;}
	.st54{clip-path:url(#SVGID_121_);fill:#00A199;}
	.st55{clip-path:url(#SVGID_121_);fill:#B5B5B6;}
	.st56{clip-path:url(#SVGID_121_);fill:none;stroke:#009991;stroke-width:1.678;stroke-miterlimit:10;}
	.st57{clip-path:url(#SVGID_121_);fill:#019E95;}
	.st58{clip-path:url(#SVGID_121_);fill:none;stroke:#009991;stroke-width:0.559;stroke-miterlimit:10;}
	.st59{clip-path:url(#SVGID_121_);fill:#D63131;}
	.st60{fill:#3E3A39;}
	.st61{fill:#00A199;}
</style>
<g>
	<defs>
		<rect id="SVGID_1_" x="487.2" y="-256.2" width="1920" height="3268.9"/>
	</defs>
	<clipPath id="SVGID_2_">
		<use xlink:href="#SVGID_1_"  style="overflow:visible;"/>
	</clipPath>
	<g class="st0">
		<defs>
			<rect id="SVGID_45_" x="487.2" y="-241.2" width="1290.5" height="1064.5"/>
		</defs>
		<clipPath id="SVGID_4_">
			<use xlink:href="#SVGID_45_"  style="overflow:visible;"/>
		</clipPath>
		<g style="clip-path:url(#SVGID_4_);">
			<defs>
				<rect id="SVGID_47_" x="173.8" y="-1187.8" width="1603.9" height="2011.2"/>
			</defs>
			<clipPath id="SVGID_6_">
				<use xlink:href="#SVGID_47_"  style="overflow:visible;"/>
			</clipPath>
			<g style="clip-path:url(#SVGID_6_);">
				
			</g>
		</g>
	</g>
</g>
<g>
	<path class="st60" d="M23.9,0h5.9v33.9h-5.9V0z M0,0h5.9v13.1h13.7l3,5.9H5.9v15H0V0z"/>
	<path class="st60" d="M58.5,14.4c-2.1-2-4.9-3-8.2-3h-5.9c-3.3,0-6,1-8.1,3c-2.1,2-3.2,4.7-3.2,8c0,3.3,1.1,6.1,3.2,8.2
		c2.1,2.2,4.9,3.3,8.1,3.3h5.9c3.3,0,6-1.1,8.1-3.3c2.1-2.2,3.2-4.9,3.2-8.2C61.7,19.1,60.7,16.4,58.5,14.4 M50.4,28.7h-5.9
		c-1.8,0-3.3-0.5-4.4-1.7c-1.2-1.1-1.7-2.5-1.7-4.3c0-1.8,0.6-3.3,1.7-4.4c1.2-1.1,2.6-1.7,4.4-1.7h5.9c1.8,0,3.3,0.6,4.4,1.7
		c1.2,1.1,1.7,2.6,1.7,4.4c0,1.8-0.6,3.2-1.7,4.3C53.7,28.1,52.2,28.7,50.4,28.7"/>
	<path class="st60" d="M92.6,13.7c-0.2-0.7-0.5-1.3-1-1.8c-0.6-0.6-1.3-0.9-2-0.9c-1.1,0-2.1,0.8-3,2.5l-6.3,12.4L74,13.5
		c-0.9-1.7-1.8-2.5-3-2.5c-0.8,0-1.4,0.3-2,0.8c-0.5,0.5-0.9,1.1-1,1.8L63,33.9h5.8l2.7-13.1l6,11.5c0.8,1.5,2,1.8,2.8,1.8
		c0.8,0,1.9-0.3,2.7-1.8l6-11.6l2.7,13.1h5.8L92.6,13.7z"/>
	<path class="st61" d="M154.3,16.6l-2.5-5.2h-9.2V0h-5.8v11.4h-12c0.4,0.3,0.8,0.6,1.1,1c1.3,1.2,2.2,2.6,2.9,4.2h7.9v12.1h5.8V16.6
		H154.3z"/>
	<path class="st60" d="M126.8,25.3c0.2-0.9,0.3-1.8,0.3-2.8c0-3.3-1.1-6-3.2-8c-2.1-2-4.9-3-8.2-3h-5.9c-3.3,0-6,1-8.1,3
		c-2.1,2-3.2,4.7-3.2,8c0,3.3,1.1,6.1,3.2,8.2c2.1,2.2,4.9,3.3,8.1,3.3h5.9c3.3,0,6-1.1,8.1-3.3c0.6-0.6,1.1-1.3,1.5-2h-9
		c-0.2,0-0.5,0-0.7,0h-5.9c-1.8,0-3.3-0.5-4.4-1.7c-0.5-0.5-1-1.1-1.2-1.8h17.2H126.8z M109.9,16.6h5.9c1.8,0,3.3,0.6,4.4,1.7
		c0.6,0.5,1,1.2,1.3,1.9h-17.2c0.3-0.7,0.7-1.3,1.3-1.9C106.7,17.2,108.1,16.6,109.9,16.6"/>
	<path class="st60" d="M214,22l-0.6,2h4.5l2.4,2.9V33h-7.1l-1.2-3h2.5v-3h-2l-1.8,6.1h-6.1l1.8-6.1h-1.6v-3.1h2.5l0.6-2h-3.1v-3.2
		h5.5l-0.5-1.3h-3.4v-6.5h25.3l2.4,2.7v3.8h-3.3l-0.6,1.3h3.1l2.4,3.2H214z M223.5,5.8v1.3h8.7l2.4,2.8h-28.7V7.1h10.9V5.8h-12.1
		V2.8h12.1V1.3h6.7v1.5h9.8l2.4,3.1H223.5z M227.5,13.6H213v1.2h14.5V13.6z M216.4,17.4l0.6,1.3h6.7l0.5-1.3H216.4z M221.8,33v-9.9
		H233l2.4,3V33H221.8z M229.6,26.2h-2.3V30h2.3V26.2z"/>
	<path class="st60" d="M184.4,25.6v7.5h-6.9v-7.5h-11.7V6.4h11.7V1.1h4.3l2.7,2.7v2.6h9.1l2.7,3.5v15.8H184.4z M177.4,9.9h-5v12.3h5
		V9.9z M189.3,9.9h-4.9v12.3h4.9V9.9z"/>
</g>
</svg>
