<svg xmlns="http://www.w3.org/2000/svg" width="339.93" height="80.186" viewBox="0 0 89.94 21.216"><path d="M80.378 10.344c1.054 0 1.905-.727 1.905-1.617 0-.9-.851-1.627-1.905-1.627-1.05 0-1.902.727-1.902 1.627 0 .89.852 1.617 1.902 1.617m-3.755-3.8V4.83h2.618v-.904h2.187v.904h2.697v1.718l-.81-.003c.662.565 1.08 1.329 1.08 2.182 0 1.754-1.796 3.183-4.017 3.183-2.207 0-4.014-1.429-4.014-3.183 0-.853.416-1.617 1.094-2.189z" style="fill:#231f20;stroke-width:.999999"/><path d="M83.502 15.68c2.302 0 4.17-.453 4.17-1.015 0-.56-1.868-1.02-4.17-1.02-2.307 0-4.174.46-4.174 1.02 0 .562 1.867 1.014 4.174 1.014m6.383-1.356c.038.11.055.23.055.342 0 1.434-2.883 2.611-6.438 2.611s-6.431-1.177-6.431-2.61c0-1.435 2.877-2.604 6.43-2.604 1.584 0 3.032.223 4.152.607V8.515h-.813v3.31h-2.072V4.688h2.072v1.945h.813V4.67h2.218zM64.24 9.389c1.629 0 2.946-.777 2.946-1.719 0-.949-1.317-1.722-2.947-1.722-1.624 0-2.937.773-2.937 1.722 0 .942 1.313 1.719 2.937 1.719M59.036 7.67c0-1.832 2.335-3.313 5.203-3.313 2.88 0 5.22 1.48 5.22 3.313 0 1.829-2.34 3.306-5.22 3.306-2.868 0-5.203-1.477-5.203-3.306" style="fill:#231f20;stroke-width:.999999"/><path d="M65.827 15.717c2.245 0 4.07-.633 4.07-1.431 0-.786-1.825-1.43-4.07-1.43-2.242 0-4.068.644-4.068 1.43 0 .798 1.826 1.43 4.068 1.43m6.25-2.086q.158.317.159.656c0 1.658-2.865 3.004-6.41 3.004-3.533 0-6.402-1.346-6.402-3.004 0-1.66 2.869-2.999 6.403-2.999 1.582 0 3.022.263 4.14.705V5.927c0-1.443 1.146-1.26 1.146-1.26h2.863v1.635h-1.898l.01 1.016h1.886v1.748h-1.892ZM55.563 6.293h1.943V4.648l-2.901.008S53.4 4.466 53.4 5.833v9.579h-8.07v-2.166h-2.316v2.576s-.202 1.144 1.162 1.144h11.388z" style="fill:#231f20;stroke-width:.999999"/><path d="M42.56 6.721V4.977h3.824v-.81h2.414v.822h3.862v1.732h-1.99c1.314.634 2.169 1.673 2.169 2.848 0 1.936-2.333 3.507-5.227 3.507-2.89 0-5.234-1.57-5.234-3.507 0-1.175.856-2.214 2.167-2.848zm5.052 4.789c1.655 0 2.988-.867 2.988-1.941s-1.333-1.95-2.988-1.95-3.003.875-3.003 1.95 1.347 1.94 3.003 1.94m-21.36.825h13.784v1.744h-2.3v2.888h-2.4v-2.888h-4.422v2.888h-2.37v-2.888h-2.292zm6.872-2.106c2.334 0 4.23-.955 4.23-2.136 0-1.176-1.896-2.126-4.23-2.126-2.34 0-4.227.95-4.227 2.126 0 1.18 1.888 2.136 4.227 2.136M39.8 8.092c0 2.118-2.983 3.832-6.676 3.832s-6.685-1.714-6.685-3.832c0-2.114 2.993-3.837 6.685-3.837 3.693 0 6.676 1.723 6.676 3.837" style="fill:#231f20;stroke-width:.999999"/><path d="M11.656 0C5.229 0 0 4.762 0 10.608s5.229 10.608 11.656 10.608c6.431 0 11.655-4.762 11.655-10.608S18.087 0 11.656 0" style="fill:#fff;stroke-width:.999999"/><path d="M11.657 1.459c-5.624 0-10.2 4.103-10.2 9.146 0 5.047 4.576 9.154 10.2 9.154 5.622 0 10.197-4.107 10.197-9.154 0-5.043-4.575-9.146-10.197-9.146m0 18.889c-5.949 0-10.789-4.37-10.789-9.743C.868 5.237 5.708.87 11.657.87c5.947 0 10.786 4.367 10.786 9.735 0 5.372-4.839 9.743-10.786 9.743" style="fill:#231f20;stroke-width:.999999"/><path d="M14.34 3.137a.2.2 0 0 0-.051.002c-.22.049-.173.135-.151.188s.2.087.294.157c.095.067.13.162.164.192.034.028.065.11.065.11s-.006.103.059.103c.06-.006.106-.073.087-.192-.034-.227-.235-.42-.235-.42s-.114-.128-.232-.14m-5.724.565c-.106-.003-.094.034-.251.157-.433.346-.618.223-.808.481-.151.209.153.232.318.153.165-.075.389-.307.635-.488.244-.185.199-.295.106-.303m7.547 1.189c-.09-.002-.073.058-.062.092.01.036.283.117.31.17.024.054.135.16.135.16s.35.146.422.523c0 0 .011.285.042.328.062.075.255.061.28.077.03.023.076.023.148.054.076.036.12.022.162.044.043.026.184.152.235.166.127.05.247.281.285.337.04.057.121.183.172.35a.6.6 0 0 0 .078.152s.022.045.074.022c.051-.022.066-.076.062-.145-.007-.067-.223-.434-.223-.434s-.118-.187-.182-.21c-.06-.022-.067-.064-.137-.226-.073-.16-.487-.627-.588-.694-.097-.064-.318-.095-.46-.241-.073-.078-.123-.248-.233-.316-.108-.065-.43-.206-.52-.21Zm-10.029.7a.74.74 0 0 0-.3.093c-.44.242-.517.493-.56.571-.043.08.01.142.065.064.056-.08.172-.23.227-.29.055-.057.3-.146.333-.136s1.001.019.693.822c0 0-.267.296-.272.48-.006.185-.046.218.095.257.145.04.133-.085.177-.225.046-.138.046-.403.078-.463.033-.06.347-.628.15-.857-.149-.171-.397-.338-.686-.316m4.794 3.013c-.209.021-.335.385-.367.492-.043.15-.022.494-.022.494-.02.232-.222.52-.247.568-.022.053-.056.227-.037.246.026.02.14.744.135.8-.011.086-.056.118-.056.118s-.254.421-.302.522c-.045.1-.215.135-.215.135s-.09-.012-.134-.012c-.043 0-.406.06-.406.06l-.17.03c-.065.014-.157-.062-.202-.14-.045-.08.078-.212.078-.246s.09-.182.09-.263c0-.08.047-.286.047-.286.436-.678.313-.89.28-1.042-.03-.154-.27-.043-.27-.043-.11 0-.404.367-.541.386-.135.02-.288.093-.45.272-.174.181-.442.164-.442.164s-.124-.04-.235-.192c-.14-.188.046-.643.12-.766.199-.345.607-.537.786-.63.436-.236.007-.263.007-.263s-.262.078-.435.009c-.42-.174-.453-.011-.545.13-.084.124-.437.203-.498.57-.03.186-.022.24-.022.24.069.69-.328 1.33-.396 1.512-.033.09-.218.412-.343.47-.1.043-.3.134-.289.199.006.041.066.05.066.05s.287.045.354.185c.065.14.123.522-.022.69-.11.12-.154.094-.224.09a.1.1 0 0 0-.08.042s.348.58.505.657c.156.082.25-.18.25-.18s-.001-.365.018-.449c.026-.078.14-.89.14-.89s.117-.495.177-.59c.061-.095.274-.247.274-.247s.326-.197.442-.258c.111-.062.408-.098.484-.155a2 2 0 0 0 .132-.112c.318-.1.337.061.363.182.023.126-.137.305-.137.305-.067.179-.115.327-.115.327s-.156.181-.243.36c-.093.188 0 .331.02.47.022.14.156.306.223.325.07.02.43-.103.43-.103.54.103 1.039-.1 1.175-.082.131.02.158.127.158.127.044.405.164.545.313.649.181.117-.09.159-.135.99-.039.702.134.57.045 1.037-.015.088-.542.77-.63 1.035-.091.266-.136.364-.315.45-.183.08-.65.618-.806.68-.157.065-.406.065-.496.103a.25.25 0 0 0-.13.303c.041.14.554.288.9.387.372.108 1.026.23 1.12.209.088-.02.469.103.469.103l.181.101s.878.286 1.016.263c.135-.022.316-.263.61-.183.29.082.52-.096.52-.096s-.026-.127.629-.026c.654.1.574-.123.655-.162.042-.017.154 0 .2-.02.049-.022.1-.12.138-.142.04-.02.135-.031.226-.06.09-.033.201-.164.201-.164s.05-.076.088-.098c.041-.028.062-.02.136-.042.082-.025.39-.207.429-.246.041-.04.036-.062.07-.098.033-.042.245-.188.245-.289s-.15-.18-.201-.2c-.047-.02-.134-.023-.248-.042-.112-.02-1.76-.526-1.76-.526s-.068-.1-.201-.246c-.137-.138-.52-.569-.588-.912-.067-.341.09-.95.09-1.096 0-.14-.09-.552-.09-.63 0-.08-.134-.324-.224-.627-.089-.304.09-.632.224-.751.134-.124.317-.245.317-.245l.158-.057c.359-.228 0-.39 0-.39-.18-.058-.408-.263-.408-.263-.634-.414-.349-.934-.349-.934.114-.366.847-.347.847-.347s.179-.019.067-.202c-.112-.18-.067-.039-.09-.141s-.415-.347-.516-.549c-.104-.199-.032-.356-.084-.442-.054-.081-.188-.111-.188-.111l-.453.069s-.09 0-.204.098c-.112.101-.29.062-.29.062-.135.012-.463-.24-.463-.24-.127-.189-.24-.25-.334-.24m.621 1.306c.117.012.217.077.242.138.036.082.213.095-.044.916 0 0-.023.15 0 .19.021.038-.037.62-.157.79-.127.174-.182-.108-.182-.108s-.056-.815-.204-.934c0 0-.078-.076-.1-.244s.05-.07.069-.243c.009-.115-.04-.188 0-.266 0 0 .1-.192.257-.231q.06-.015.12-.008zm-7.708.277s-.051.012-.09.092c-.04.078-.053.612-.053.612s-.012.238.04.273c.052.034.118.021.143-.08.025-.1-.025-.404-.025-.436 0-.033.102-.326.078-.358-.028-.034-.093-.103-.093-.103m2.138.18s-.3.055-.375.227c-.078.17.06.112.163.138.1.02.3-.218.339-.297.038-.08-.127-.068-.127-.068m8.494.014s-.179.081-.112.208c.067.12.386.178.386.178s.406.265.406.467c0 .205-.025.509-.025.568 0 .062.044.466.025.531-.025.059-.117.202-.361.18 0 0-.226.022-.025.142.204.121.3.1.342.121.04.022.061.106.089.123.023.019.292.164.427.125.132-.042.222.087.384-.167.1-.158.028-.885-.015-1.083-.069-.31-.072-.453-.078-.513-.008-.214.078-.236.078-.236s.055-.096-.066-.088c-.126.011-.59-.007-.702-.079a3 3 0 0 1-.395-.348c-.033-.042-.358-.129-.358-.129m-8.9 2.041c-.043.004-.087.022-.087.074 0 .112.09.217.148.245.148.073.183.063.269-.038.088-.098-.054-.229-.054-.229l-.187-.047s-.044-.01-.088-.005z" style="fill:#231f20;stroke-width:.999999"/><path d="M13.088 2.233a.65.65 0 0 0-.316.138s-.201.067-.282.097c-.081.028-.182 0-.384-.107-.203-.097-.292-.044-.36 0-.066.05-.238-.052-.361-.016-.124.04-.185.234-.338.283-.151.05-.727-.239-.945-.16-.224.076-.289.38-.496.384-.095.002-.212-.157-.477-.224-.11-.028-.767.203-.496.632l.294.282s.114.294.092.347c-.034.061-.204.3-.47.445-.358.201-.277.265-.638.447-.14.068-.425.062-.517.02-.09-.041-.272-.283-.16-.507.116-.227.854-.57.971-.771.118-.2.249-1.078-.384-.692 0 0-.276.14-.517.409-.245.26-.59 1.118-.59 1.298s.043.587.093.71c.05.127.404.448.45.587.048.144.07.428.025.51-.048.078-.204.383-.204.525 0 .14-.198.614-.224.66-.03.046-.135.16-.226.174-.095.016-.339 0-.409-.08-.067-.082-.089-.235-.089-.235s-.067-.197-.048-.278c.037-.153 0-.164.07-.26.243-.33.202-.5.137-.526-.226-.106-.476-.126-.588.059-.111.184-.382.445-.542.406-.157-.04-.338-.1-.248-.386.092-.284.091-.87 1.197-1.236 0 0 .181-.107.044-.266-.132-.163-.766.042-.922.12-.16.086-.362.287-.43.49s-.34.223-.382.305c-.044.08-.07.508-.045.628.02.123-.14.183-.204.162-.067-.018-.137-.223-.498.143-.36.365-.495.669-.54.83-.048.167-.31.247-.36.488-.079.356.059.654.193.738.201.134.33.613.213.783-.074.11-.202.085-.314-.017-.032-.024-.07-.17-.087-.173-.125-.062-.198.19-.173.274.02.081.005.607-.087.932-.048.187.135.33.21.509.1.252-.056.466-.081.774-.022.3.159.767.148 1.094-.008.17.022.213.103.302.051.059.17-.048.193-.168.022-.122.18-.134.18.13 0 .262-.048.242-.048.324 0 .078.123.305.067.629-.02.143.232.495.315.49.085-.01.135-.107.157-.207.023-.101.05-.63.05-.63l.222-.65s.137-.343.293-.038c0 0 .25-.02-.156.853 0 0-.137.159.02.69l-.042.487c-.02.193.338.789.473.89.134.104.27-.04.27-.198 0-.162-.114-.49-.114-.692 0-.207.16-.386.135-.567-.02-.184-.14-.568.242-.837 0 0 .258.015.323.753.044.486-.068.629-.023.71.045.082.09.125.09.125s.106.029.15-.078c.046-.103-.01-.4.042-.533.05-.132.106-.244.126-.65.006-.142.096-.547-.453-.972 0 0-.084-.054-.065-.317.01-.09-.265-.159-.34-.235-.076-.073-.113-.24-.113-.24s-.114-.31.496-.45c.09-.016.606-.374.722-.79.024-.094-.088-.042-.27.02-.181.059-.679.042-.634-.366.048-.406.497-1.074 1.174-.61 0 0 .206.227.09-.221-.112-.444.16-.752.316-.915.16-.161.271-.2.387-.262.111-.062.246-.244.246-.244s.293-.104.47.039c.184.143.43.123.497.078.07-.036.45-.036.566.046.114.08.315.223.292.327-.022.097-.676.71-1.17.97 0 0-.205.143-.205.306 0 0-.18.346.204.122 0 0 .056-.145.336-.285.128-.06.251-.223.427-.305.185-.08.386-.383.815-.017 0 0 .09.14.248.081a.38.38 0 0 0 .205-.184s.044-.649.134-.85c.09-.21.358-.672.517-.694.16-.02.677.262.722.327.048.059.022.182.182.201.157.02.405-.1.405-.1s.503-.108.655-.124c.262-.03.428.205.428.205s.106.148.134.265c.028.11-.02.227.036.307.054.085.507.42.574.647.067.22 0 .299.067.344.07.042.226-.204.405-.246.179-.04.353.065.403-.008.025-.038.06-.166.048-.356-.011-.21.12-.307.26-.24.184.084.149.302.132.374-.015.073-.122.21-.077.353.045.14.138.363.275.406.132.041.447.123.473-.02.022-.142-.015-.226 0-.282.008-.056.201-.205.268-.045.067.165.19.632.302.7.112.055-.002.313-.05.374-.044.061-.003.265-.003.265s.09.266.09.328c0 .063-.024.408-.024.408l.068.707s.045.225-.2.367c-.25.14-.451.12-.451.12s-.364.185-1.536-.545c0 0-.24-.464-.75-.295-.315.1-.293.124-.394.264 0 0-.229.295.134.638 0 0 .04.078.12.043.106-.055.17-.104.17 0 0 .103-.07.505.337.972 0 0 0 .163-.027.221-.018.062-.245.43-.066.954l.115.146s.134.097.226.019c.09-.08.044-.107.09-.247.06-.19.234-.2.316-.41.075-.183.044-.216.044-.216s-.1-.252-.092-.489c.003-.098.05-.49.162-.587a.6.6 0 0 1 .34-.12c.133 0 .606.212.693.324.092.11.136.212.159.327.028.108-.023.383-.02.464 0 .08.047.225.045.321-.003.105-.044.224-.044.367 0 .146.044.448.044.448s.014.293.067.388c.053.09.291.152.353-.027.108-.332-.01-.879.006-1.032.019-.15.209-.72.204-.811-.006-.09-.065-.163-.065-.163s-.094-.204.065-.162c.16.039.212.03.271.123.058.09-.111.101.045.286 0 0 .075.145.07.262-.009.114-.123.247-.092.344.067.227.337.101.337.325 0 .222.012.3.023.363.011.065.16.218.268-.024 0 0 .023-.107.05-.174.021-.07.144-.26.156-.328.01-.067 0-.119 0-.119l-.022-.208s-.135-.503-.068-.727c.069-.224.125-.408.226-.429.1-.016.154.006.223.124.073.115.017.549.093.604.075.05.208.009.269.056.067.056.086.176.114.336.028.154.009.313.053.436.045.129.286.205.339 0 .053-.198.022-.455.037-.62a.42.42 0 0 1 .181-.315c.067-.04.227.118.316.102.09-.023.202-.193.202-.356s-.046-.632-.02-.808c.02-.185.003-.326-.006-.352-.016-.073.11-.35.213-.112 0 0 .036.16.061.216.026.058.045.067.068.162.022.095-.068.369-.068.447s.09.1.156.02c.068-.079.18-.124.161-.204-.022-.078.045-.543.092-.608.042-.058.078-.237.087-.386.008-.146-.067-.321-.045-.363s.096-.045.113-.08c.019-.037-.015-.074.021-.124.04-.048.193-.143.249-.345.15-.539-.126-.707-.024-1.057.052-.198-.021-.224-.021-.224s-.316-.12-.316-.223c0-.095.09-.282.09-.282s-.045-1.113-.09-1.197c-.044-.082.045-.63.07-.731.02-.097-.159-.366-.226-.57-.067-.202-.062-.305-.16-.36-.095-.066-.28-.034-.36-.105-.082-.072-.157-.668-.474-.752 0 0-.15-.044-.186-.098-.034-.051-.33-.672-.603-.795-.27-.12-.701-.61-.766-.771-.07-.163-.364-.243-.427-.243-.07 0-.294-.16-.408-.201-.112-.043-.446-.068-.452.1-.008.168 0 .14 0 .14s.044.12.046.165c.006.04-.064.075.09.12.204.058.204.101.27.101.068 0 .227.184.227.184s.201.165.268.182c.068.02.25.143.25.143l.293.203s.06.015.16.16c.097.145.173.405.246.47.076.062.131.065.203.14.074.08.113.182.157.286.046.1.155.198.183.282.028.09.101.26.146.34.044.082-.012.15-.034.27-.026.123-.061.17-.094.204-.027.034-.18.108-.313.123a1 1 0 0 1-.453-.084 1.3 1.3 0 0 1-.268-.324c-.034-.07-.019-.188-.045-.266-.028-.075-.271-.359-.363-.384-.09-.027-.247-.021-.247-.021s-.207-.006-.296-.04c-.08-.036-.198-.178-.246-.262-.045-.084-.039-.378-.064-.468a.7.7 0 0 0-.227-.285c-.092-.068-.386-.2-.45-.264-.065-.064-.17-.313-.16-.365.012-.05.068-.084.068-.14 0-.06-.045-.06-.068-.14-.019-.087.068-.289.068-.289s.055-.173.047-.24c-.01-.072-.221-.17-.16-.347.015-.05.095-.07.113-.1.016-.037-.006-.154-.045-.204-.04-.054-.096-.061-.18-.196-.056-.093-.22-.185-.313-.238-.192-.112-.268.12-.23.23.04.11.146.352.158.427.011.07.025.305-.112.428-.134.12-.375.03-.46-.014-.208-.11-.29-.43-.29-.43s-.129-.172-.24-.172c-.114 0-.454-.058-.498-.198-.045-.14-.09-.178-.009-.321.079-.137.4-.037.422-.16.023-.132-.19-.07-.302-.271-.083-.153-.268-.405-.551-.375m-1.23 1.703.017.004c.033.003.034.037.07.036.003.029.003.058.02.08.016.012.019.034.036.05a.04.04 0 0 1 .009.017c.002.066-.04.141-.11.188-.005.006-.005.02-.013.03-.045.038-.105.051-.147.088.003.036-.049.025-.055.05-.054.014-.115.02-.132-.033a.56.56 0 0 1 .023-.379c.01-.021.014-.039.022-.052.043-.06.19-.089.266-.072zm-1.615.607a.31.31 0 0 1 .307.196c.15.121.117.138.158.263.05.336.146.345.045.554-.035.076-.164.1-.218.14-.137.104-.288-.046-.37-.159-.13-.183-.178-.395-.28-.596-.06-.125.051-.176.124-.322a.42.42 0 0 1 .234-.076m-1.29 1.742a.2.2 0 0 1 .11.025s.057.063.077.144c.025.085-.056.135-.056.135s-.034.01-.078 0c-.045-.012-.123-.101-.123-.101-.028-.153.017-.197.07-.203m6.103.34a.5.5 0 0 1 .25.064c.096.04.16.243.16.243s-.16.649-.245.792c-.093.142-.272.173-.362.165-.092-.013-.248-.235-.248-.235v-.112s.07-.683.248-.834a.33.33 0 0 1 .197-.083m-6.967.026c.155-.006.376.067.376.067s.112-.13.146.257c.034.382-.09.414-.09.414-.237.08-.528-.05-.528-.05a.43.43 0 0 1-.16-.417c.011-.031.034-.132.134-.233.026-.025.07-.036.122-.038m5.306.532c.067-.01.211.005.279.275.103.425-.09.448-.157.473-.07.014-.056-.065-.079-.093-.022-.034-.011-.225-.125-.285-.109-.057-.1-.226-.1-.226.033-.11.145-.135.145-.135s.014-.006.037-.009M16.29 8.34c.092-.01.18.095.18.095l.056.365s-.045.09-.114.123c-.065.028-.112-.102-.112-.102s-.09-.188-.132-.286c-.047-.1.032-.14.032-.14a.13.13 0 0 1 .09-.055m-11.53.2c.058-.01.136 0 .22.077.06.052.023.226 0 .284-.024.065-.07.143-.27.143-.205 0-.157-.285-.157-.285l.112-.182s.037-.029.095-.037m-.95 1.396.178.04c.201.104.181.366.201.613.024.24 0 .726-.111.829-.112.101-.317.02-.407-.019-.092-.042-.224-.385-.27-.47-.045-.078.091-.506.114-.726.02-.227.294-.267.294-.267zm15.395.118a.32.32 0 0 1 .185.104.4.4 0 0 1 .105.235c0 .05.007.168-.105.212-.176.072-.316-.028-.338-.059-.036-.052-.078-.215-.078-.215-.056-.14.123-.251.18-.272a.1.1 0 0 1 .051-.005m-5.295.477c-.022-.005-.046.015-.046.015s-.11.093-.244.112c-.133.023-.735-.092-.562.367 0 0 .03.106.134.201.137.134.429.232.473.313.042.084.24.182.316.21.073.028.02.417.02.417s0 .145.137.125c.134-.023.383-.19.414-.218.066-.067.115-.634.059-.778-.06-.142-.518-.346-.585-.466-.073-.117-.064-.246-.096-.283a.03.03 0 0 0-.02-.015m-4.026.127-.101.028s-.137.07-.216.367c-.028.1-.055.108-.083.15-.025.047-.04.281-.04.281s-.058.186.031.186c.09 0 .218-.103.218-.103s.258-.246.27-.364c.007-.077.012-.53-.08-.545zm8.568.037c.099.025.038.326.038.326-.114.649.137.669.137.669s.118.03.151.197c.02.258-.095.412-.095.412-.093.12-.196.053-.239-.008-.044-.064-.04-.252-.068-.296-.026-.04-.124 0-.202-.272-.095-.333.118-.94.118-.94.077-.074.127-.096.16-.088m-10.434.81c-.109-.021-.515.266-.526.316s-.062.011-.162.403c-.058.223-.025.219-.207 1.122-.181.909.193 1.421.193 1.421s.067.08.123-.059c.056-.142-.149-.397-.07-.49.081-.088.271-.059.294.03.03.117.034.084.047.163.012.082-.019.379-.041.468-.023.095.018.503.186.517.123.012.146-.36.146-.36.003-.246.034-.408.034-.408-.018-.169-.07-.135-.042-.308a9 9 0 0 1 .056-.296s-.01-.81-.026-.94c-.011-.138-.251-.6-.251-.793-.006-.192.126-.382.232-.528.101-.143.08-.044.117-.16.034-.111-.072-.095-.103-.097zm.985 1.68c-.03-.01-.46.038-.596.273 0 0-.112.884-.056.996s.064.034.123.1c.064.067.047.17.092.254.045.082.123.18.123.18s.045.357.16.42c0 0 .18.027.215-.11.034-.142-.036-.288-.036-.288s.023-.08.036-.181c.01-.104-.022-.194-.022-.256 0-.061.2-.628.2-.628.023-.499-.007-.593-.04-.641 0 0-.034-.09-.2-.118zm.769.045a.14.14 0 0 0-.067.001c-.034.014-.079.126-.079.126s-.033.213-.033.291c0 .08-.037.308-.045.358-.011.053.045.124.078.243.045.16.159.132.169.039.011-.09.113-.693.066-.757a.35.35 0 0 1-.055-.235c.006-.04-.012-.06-.034-.066m-3.384.978c-.116-.022-.25.142-.266.207q.002.001-.013.035s-.125.401-.134.481c-.008.078.002.677.124.83.12.156.184.13.184.222 0 .091.083.129.164.11.083-.02.154-.298.132-.447-.018-.145-.166-.214-.177-.478-.012-.267.124-.543.124-.543s.035-.304-.09-.395a.1.1 0 0 0-.048-.022" style="fill:#00953b;stroke-width:.999999"/></svg>